<svg width="624" height="216" viewBox="0 0 624 216" fill="none" xmlns="http://www.w3.org/2000/svg">
<g clip-path="url(#clip0_161_10885)">
<rect width="624" height="216" rx="24" fill="#E0F2FE"/>
<g clip-path="url(#clip1_161_10885)">
<path opacity="0.2" d="M501.75 138C510.034 138 516.75 132.124 516.75 124.875C516.75 117.626 510.034 111.75 501.75 111.75C493.466 111.75 486.75 117.626 486.75 124.875C486.75 132.124 493.466 138 501.75 138Z" fill="#0284C7"/>
<path opacity="0.2" d="M466.678 119.25H424.322L445.5 74.25L466.678 119.25Z" fill="#0284C7"/>
<path d="M475.5 138L445.5 74.25L415.5 138" stroke="#0284C7" stroke-width="6" stroke-linecap="round" stroke-linejoin="round"/>
<path d="M501.75 138C510.034 138 516.75 132.124 516.75 124.875C516.75 117.626 510.034 111.75 501.75 111.75C493.466 111.75 486.75 117.626 486.75 124.875C486.75 132.124 493.466 138 501.75 138Z" stroke="#0284C7" stroke-width="6" stroke-linecap="round" stroke-linejoin="round"/>
<path d="M516.75 138V109.875C516.75 102.628 510.033 96.75 501.75 96.75C497.269 96.75 493.247 97.7719 490.5 100.5" stroke="#0284C7" stroke-width="6" stroke-linecap="round" stroke-linejoin="round"/>
<path d="M466.678 119.25H424.322" stroke="#0284C7" stroke-width="6" stroke-linecap="round" stroke-linejoin="round"/>
</g>
<g clip-path="url(#clip2_161_10885)">
<path opacity="0.2" d="M312 138C312 135.016 313.185 132.155 315.295 130.045C317.405 127.935 320.266 126.75 323.25 126.75H344.911C347.459 126.75 349.932 125.886 351.925 124.298C353.917 122.709 355.312 120.492 355.88 118.008C356.654 114.597 357.03 111.108 357 107.611C356.789 82.8516 336.3 62.7516 311.531 63C299.678 63.1235 288.352 67.919 280.014 76.3448C271.676 84.7706 266.999 96.146 267 108C267 127.598 279.53 142.425 297 148.598C298.696 149.198 300.511 149.382 302.294 149.135C304.076 148.889 305.773 148.218 307.242 147.18C308.711 146.142 309.91 144.766 310.738 143.169C311.566 141.572 311.999 139.799 312 138Z" fill="#0284C7"/>
<path d="M312 138C312 135.016 313.185 132.155 315.295 130.045C317.405 127.935 320.266 126.75 323.25 126.75H344.911C347.459 126.75 349.932 125.886 351.925 124.298C353.917 122.709 355.312 120.492 355.88 118.008C356.654 114.597 357.03 111.108 357 107.611C356.789 82.8516 336.3 62.7516 311.531 63C299.678 63.1235 288.352 67.919 280.014 76.3448C271.676 84.7706 266.999 96.146 267 108C267 127.598 279.53 142.425 297 148.598C298.696 149.198 300.511 149.382 302.294 149.135C304.076 148.889 305.773 148.218 307.242 147.18C308.711 146.142 309.91 144.766 310.738 143.169C311.566 141.572 311.999 139.799 312 138Z" stroke="#0284C7" stroke-width="6" stroke-linecap="round" stroke-linejoin="round"/>
<path d="M312 89.25C315.107 89.25 317.625 86.7316 317.625 83.625C317.625 80.5184 315.107 78 312 78C308.893 78 306.375 80.5184 306.375 83.625C306.375 86.7316 308.893 89.25 312 89.25Z" fill="#0284C7"/>
<path d="M291.375 100.5C294.482 100.5 297 97.9816 297 94.875C297 91.7684 294.482 89.25 291.375 89.25C288.268 89.25 285.75 91.7684 285.75 94.875C285.75 97.9816 288.268 100.5 291.375 100.5Z" fill="#0284C7"/>
<path d="M291.375 126.75C294.482 126.75 297 124.232 297 121.125C297 118.018 294.482 115.5 291.375 115.5C288.268 115.5 285.75 118.018 285.75 121.125C285.75 124.232 288.268 126.75 291.375 126.75Z" fill="#0284C7"/>
<path d="M332.625 100.5C335.732 100.5 338.25 97.9816 338.25 94.875C338.25 91.7684 335.732 89.25 332.625 89.25C329.518 89.25 327 91.7684 327 94.875C327 97.9816 329.518 100.5 332.625 100.5Z" fill="#0284C7"/>
</g>
<g clip-path="url(#clip3_161_10885)">
<path opacity="0.2" d="M173.653 60.3498L108.349 125.653C106.885 127.118 106.885 129.492 108.349 130.957L133.046 155.653C134.511 157.118 136.885 157.118 138.35 155.653L203.653 90.3499C205.117 88.8855 205.117 86.5111 203.653 85.0466L178.956 60.3498C177.492 58.8854 175.117 58.8854 173.653 60.3498Z" fill="#0284C7"/>
<path d="M173.653 60.3498L108.349 125.653C106.885 127.118 106.885 129.492 108.349 130.957L133.046 155.653C134.511 157.118 136.885 157.118 138.35 155.653L203.653 90.3499C205.117 88.8855 205.117 86.5111 203.653 85.0466L178.956 60.3498C177.492 58.8854 175.117 58.8854 173.653 60.3498Z" stroke="#0284C7" stroke-width="6" stroke-linecap="round" stroke-linejoin="round"/>
<path d="M156 78L171 93" stroke="#0284C7" stroke-width="6" stroke-linecap="round" stroke-linejoin="round"/>
<path d="M141 93L156 108" stroke="#0284C7" stroke-width="6" stroke-linecap="round" stroke-linejoin="round"/>
<path d="M126 108L141 123" stroke="#0284C7" stroke-width="6" stroke-linecap="round" stroke-linejoin="round"/>
</g>
</g>
<defs>
<clipPath id="clip0_161_10885">
<rect width="624" height="216" rx="24" fill="white"/>
</clipPath>
<clipPath id="clip1_161_10885">
<rect width="120" height="120" fill="white" transform="translate(408 48)"/>
</clipPath>
<clipPath id="clip2_161_10885">
<rect width="120" height="120" fill="white" transform="translate(252 48)"/>
</clipPath>
<clipPath id="clip3_161_10885">
<rect width="120" height="120" fill="white" transform="translate(96 48)"/>
</clipPath>
</defs>
</svg>
