<svg width="166" height="166" viewBox="0 0 166 166" fill="none" xmlns="http://www.w3.org/2000/svg">
<g clip-path="url(#clip0_161_12196)">
<path opacity="0.2" d="M144.751 120.914C148.524 113.993 150.484 106.229 150.447 98.3459C150.41 90.4629 148.378 82.7176 144.54 75.832C140.701 68.9465 135.182 63.145 128.496 58.9683C121.811 54.7917 114.176 52.3759 106.305 51.9463C108.781 58.9872 109.534 66.5192 108.499 73.9109C107.464 81.3025 104.672 88.3383 100.357 94.4284C96.0422 100.518 90.33 105.485 83.6996 108.912C77.0692 112.339 69.7138 114.127 62.25 114.125C61.3941 114.125 60.5446 114.125 59.7017 114.054C61.9492 120.434 65.5554 126.25 70.2711 131.1C74.9867 135.95 80.6993 139.718 87.014 142.144C93.3286 144.569 100.095 145.595 106.845 145.149C113.594 144.704 120.167 142.798 126.108 139.563L145.477 145.094C146.144 145.285 146.851 145.295 147.523 145.121C148.195 144.947 148.808 144.596 149.299 144.105C149.79 143.614 150.141 143.001 150.315 142.329C150.489 141.657 150.48 140.95 150.288 140.283L144.751 120.914Z" fill="white"/>
<path d="M20.5296 113.969C19.8622 114.161 19.1558 114.17 18.4837 113.996C17.8116 113.822 17.1983 113.471 16.7074 112.98C16.2165 112.489 15.8659 111.876 15.692 111.204C15.518 110.532 15.5271 109.825 15.7182 109.158L21.2494 89.7892C15.8757 79.9305 14.2349 68.4654 16.6278 57.4952C19.0207 46.525 25.2869 36.7846 34.278 30.0592C43.2691 23.3338 54.3827 20.0739 65.5821 20.877C76.7815 21.6801 87.3163 26.4924 95.2558 34.4318C103.195 42.3713 108.008 52.9062 108.811 64.1055C109.614 75.3049 106.354 86.4186 99.6285 95.4097C92.9031 104.401 83.1627 110.667 72.1925 113.06C61.2223 115.453 49.7572 113.812 39.8985 108.438L20.5296 113.969Z" stroke="white" stroke-width="6" stroke-linecap="round" stroke-linejoin="round"/>
<path d="M59.6953 114.054C61.9428 120.434 65.5491 126.25 70.2647 131.1C74.9804 135.95 80.693 139.718 87.0076 142.144C93.3223 144.569 100.088 145.595 106.838 145.149C113.588 144.704 120.161 142.798 126.102 139.563L145.471 145.094C146.138 145.285 146.844 145.295 147.517 145.121C148.189 144.947 148.802 144.596 149.293 144.105C149.784 143.614 150.134 143.001 150.308 142.329C150.482 141.657 150.473 140.95 150.282 140.283L144.751 120.914C148.525 113.993 150.484 106.229 150.447 98.3459C150.411 90.4629 148.378 82.7176 144.54 75.832C140.702 68.9465 135.182 63.145 128.497 58.9683C121.811 54.7917 114.176 52.3759 106.305 51.9463" stroke="white" stroke-width="6" stroke-linecap="round" stroke-linejoin="round"/>
</g>
<defs>
<clipPath id="clip0_161_12196">
<rect width="166" height="166" fill="white"/>
</clipPath>
</defs>
</svg>
