<svg width="498" height="842" viewBox="0 0 498 842" fill="none" xmlns="http://www.w3.org/2000/svg">
<path d="M64.3931 842C76.914 842 88.0933 839.324 97.9311 833.973C108.216 828.621 116.042 820.593 121.408 809.89C126.774 798.741 129.457 785.138 129.457 769.083V72.9167C129.457 56.8617 126.774 43.4825 121.408 32.7791C116.042 21.6297 108.216 13.3792 97.9311 8.02754C88.0933 2.67585 76.914 0 64.3931 0C52.3194 0 41.3636 2.67585 31.5258 8.02754C21.688 13.3792 13.8624 21.6297 8.04914 32.7791C2.68304 43.4825 0 56.8617 0 72.9167V769.083C0 785.138 2.68304 798.741 8.04914 809.89C13.8624 820.593 21.688 828.621 31.5258 833.973C41.3636 839.324 52.3194 842 64.3931 842ZM64.3931 803.2C59.4742 803.2 55.226 802.085 51.6486 799.856C48.5184 797.18 45.8354 793.612 43.5995 789.152C41.8108 784.247 40.9164 778.226 40.9164 771.09V70.9098C40.9164 63.7743 41.8108 57.9766 43.5995 53.5169C45.8354 48.6112 48.5184 45.0434 51.6486 42.8135C55.226 40.1376 59.4742 38.7997 64.3931 38.7997C69.7592 38.7997 74.2309 40.1376 77.8083 42.8135C81.3857 45.0434 84.0687 48.6112 85.8574 53.5169C88.0933 57.9766 89.2113 63.7743 89.2113 70.9098V771.09C89.2113 778.226 88.0933 784.247 85.8574 789.152C84.0687 793.612 81.3857 797.18 77.8083 799.856C74.2309 802.085 69.7592 803.2 64.3931 803.2Z" fill="black"/>
<path d="M200.88 530.264L230.393 300.142L249.174 310.845L300.823 3.34481H260.577L209.599 383.762H198.867L200.88 530.264ZM172.037 838.655H212.953V3.34481H172.037V838.655ZM261.919 838.655H302.165L249.845 226.556L224.356 296.128L261.919 838.655Z" fill="black"/>
<path d="M351.452 838.655H391.698V42.1445H427.919V3.34481H315.231V42.1445H351.452V838.655Z" fill="black"/>
<path d="M457.754 838.655H498V3.34481H457.754V838.655Z" fill="black"/>
</svg>
