<svg width="674" height="727" viewBox="0 0 674 727" fill="none" xmlns="http://www.w3.org/2000/svg">
<path d="M87.1505 727C104.096 727 119.227 724.69 132.541 720.069C146.461 715.448 157.052 708.517 164.315 699.276C171.578 689.649 175.209 677.905 175.209 664.042V62.9578C175.209 49.0955 171.578 37.5436 164.315 28.3021C157.052 18.6756 146.461 11.5519 132.541 6.93114C119.227 2.31038 104.096 0 87.1505 0C70.8098 0 55.9821 2.31038 42.6674 6.93114C29.3528 11.5519 18.7616 18.6756 10.8938 28.3021C3.63127 37.5436 0 49.0955 0 62.9578V664.042C0 677.905 3.63127 689.649 10.8938 699.276C18.7616 708.517 29.3528 715.448 42.6674 720.069C55.9821 724.69 70.8098 727 87.1505 727ZM87.1505 693.5C80.4931 693.5 74.7436 692.537 69.9019 690.612C65.6655 688.301 62.0342 685.221 59.0081 681.37C56.5873 677.134 55.3769 671.936 55.3769 665.775V61.225C55.3769 55.064 56.5873 50.0582 59.0081 46.2076C62.0342 41.9719 65.6655 38.8914 69.9019 36.966C74.7436 34.6557 80.4931 33.5005 87.1505 33.5005C94.413 33.5005 100.465 34.6557 105.307 36.966C110.149 38.8914 113.78 41.9719 116.201 46.2076C119.227 50.0582 120.74 55.064 120.74 61.225V665.775C120.74 671.936 119.227 677.134 116.201 681.37C113.78 685.221 110.149 688.301 105.307 690.612C100.465 692.537 94.413 693.5 87.1505 693.5Z" fill="black"/>
<path d="M271.873 457.841L311.817 259.149L337.236 268.39L407.138 2.88798H352.669L283.675 331.348H269.15L271.873 457.841ZM232.837 724.112H288.214V2.88798H232.837V724.112ZM354.485 724.112H408.954L338.144 195.613L303.647 255.683L354.485 724.112Z" fill="black"/>
<path d="M475.66 724.112H530.129V36.3885H579.151V2.88798H426.638V36.3885H475.66V724.112Z" fill="black"/>
<path d="M619.531 724.112H674V2.88798H619.531V724.112Z" fill="black"/>
</svg>
